<?xml version="1.0" standalone="no"?>
<!DOCTYPE svg PUBLIC "-//W3C//DTD SVG 20010904//EN"
 "http://www.w3.org/TR/2001/REC-SVG-20010904/DTD/svg10.dtd">
<svg version="1.0" xmlns="http://www.w3.org/2000/svg"
 width="256.000000pt" height="256.000000pt" viewBox="0 0 256.000000 256.000000"
 preserveAspectRatio="xMidYMid meet">

<g transform="translate(0.000000,256.000000) scale(0.100000,-0.100000)"
fill="#000000" stroke="none">
<path d="M1006 1645 c-10 -15 -13 -24 -7 -21 6 4 11 3 11 -3 0 -5 -6 -12 -12
-14 -10 -4 -10 -6 0 -6 6 -1 12 -6 12 -12 0 -5 -5 -7 -10 -4 -16 10 -41 -22
-46 -58 l-5 -32 26 30 27 30 -21 -32 c-12 -17 -21 -36 -21 -43 0 -6 -5 -8 -10
-5 -6 4 -8 11 -5 16 4 5 -1 9 -9 9 -14 0 -20 -18 -19 -57 1 -12 -11 -17 -30
-14 -5 1 -6 -3 -2 -9 3 -6 12 -8 18 -4 7 3 1 -4 -13 -15 -23 -19 -23 -21 -5
-21 15 0 17 -2 6 -9 -11 -7 -11 -9 0 -13 9 -3 284 164 308 187 4 5 -134 95
-145 95 -4 0 -12 7 -19 16 -10 14 -13 13 -29 -11z m29 -25 c3 -5 1 -10 -4 -10
-6 0 -11 5 -11 10 0 6 2 10 4 10 3 0 8 -4 11 -10z"/>
<path d="M870 1339 c0 -5 5 -7 10 -4 6 3 10 8 10 11 0 2 -4 4 -10 4 -5 0 -10
-5 -10 -11z"/>
<path d="M1499 1247 c-193 -129 -287 -187 -304 -187 -8 0 -15 -4 -15 -8 0 -5
6 -9 13 -9 7 0 67 -35 133 -79 286 -189 618 -362 856 -447 108 -39 328 -97
367 -97 8 0 11 69 11 244 l0 243 -62 13 c-238 46 -522 154 -797 305 -66 36
-124 65 -129 65 -4 0 -37 -19 -73 -43z"/>
<path d="M1080 1000 c0 -5 -9 -10 -19 -10 -11 0 -33 -11 -49 -25 -21 -18 -32
-21 -40 -13 -9 9 -10 6 -7 -11 3 -18 1 -20 -9 -12 -15 12 -46 5 -46 -11 0 -6
-7 -8 -15 -4 -8 3 -15 0 -15 -7 0 -7 -12 -14 -26 -15 -34 -3 -46 -11 -38 -24
5 -7 1 -9 -9 -5 -9 3 -17 1 -19 -5 -2 -6 -13 -13 -24 -14 -32 -4 -48 -9 -64
-19 -8 -5 -19 -10 -25 -11 -28 -5 -66 -25 -71 -37 -3 -8 -16 -13 -30 -11 -13
1 -22 -1 -19 -6 3 -4 -15 -14 -39 -21 -25 -7 -43 -17 -40 -21 3 -4 -2 -5 -10
-2 -8 3 -25 -3 -36 -14 -20 -18 -82 -38 -104 -33 -5 1 -6 -6 -2 -15 6 -15 4
-15 -11 -3 -9 8 -14 9 -10 2 5 -7 -4 -14 -23 -18 -16 -4 -30 -10 -30 -15 0 -5
-9 -7 -20 -5 -13 2 -20 -2 -20 -11 0 -8 -8 -14 -18 -14 -10 0 -23 -5 -30 -12
-7 -7 -12 -9 -12 -6 0 4 -12 1 -26 -7 -15 -7 -34 -11 -43 -8 -14 4 -14 3 -1
-6 13 -9 13 -12 1 -23 -10 -10 -12 -10 -7 0 9 15 -20 16 -30 0 -5 -7 -3 -8 6
-3 8 5 11 4 7 -2 -4 -6 -18 -8 -32 -5 -19 3 -25 0 -25 -13 0 -11 6 -15 18 -12
219 59 490 161 634 237 9 5 52 28 95 51 43 23 96 52 118 65 23 13 59 34 81 46
129 73 173 103 161 110 -17 11 -27 10 -27 -2z m-430 -216 c0 -8 -19 -13 -24
-6 -3 5 1 9 9 9 8 0 15 -2 15 -3z"/>
</g>
</svg>
