<?xml version="1.0" standalone="no"?>
<!DOCTYPE svg PUBLIC "-//W3C//DTD SVG 20010904//EN"
 "http://www.w3.org/TR/2001/REC-SVG-20010904/DTD/svg10.dtd">
<svg version="1.0" xmlns="http://www.w3.org/2000/svg"
 width="1000.000000pt" height="389.000000pt" viewBox="0 0 1000.000000 389.000000"
 preserveAspectRatio="xMidYMid meet">

<g transform="translate(0.000000,389.000000) scale(0.100000,-0.100000)"
fill="#000000" stroke="none">
<path d="M8190 3843 c-388 -29 -807 -129 -1275 -305 -513 -193 -1152 -524
-1740 -901 -77 -49 -151 -97 -165 -105 -25 -14 -30 -12 -185 91 -88 58 -163
103 -167 101 -4 -3 -8 -1 -8 5 0 6 -10 15 -21 22 -15 7 -19 8 -15 0 5 -7 1 -9
-8 -5 -9 3 -14 10 -11 14 3 5 1 11 -4 14 -5 4 -13 1 -17 -6 -5 -8 -9 -6 -14 7
-6 18 -7 17 -12 -3 -3 -12 -3 -21 1 -20 31 4 42 -22 20 -52 -8 -12 -9 -8 -5
15 3 17 3 24 0 17 -3 -6 -9 -10 -14 -7 -4 3 -7 -3 -6 -13 0 -10 -5 -16 -13
-14 -8 2 -11 -3 -8 -12 3 -8 -4 -25 -18 -38 -19 -18 -21 -26 -13 -43 10 -18 9
-18 -5 -7 -13 11 -15 10 -10 -7 3 -12 10 -18 17 -14 6 3 0 -5 -14 -19 -14 -13
-28 -23 -31 -22 -3 2 -6 -3 -6 -11 0 -8 4 -15 9 -15 5 0 6 -5 3 -10 -5 -8 -11
-8 -20 0 -9 8 -14 6 -19 -5 -3 -8 -1 -15 5 -15 6 0 7 -4 4 -10 -3 -5 1 -10 9
-10 9 0 16 6 16 13 0 15 31 47 45 47 4 0 2 -7 -5 -15 -7 -8 -9 -15 -5 -15 4 0
-3 -8 -14 -18 -20 -16 -27 -32 -31 -72 -1 -10 -4 -9 -9 5 -5 11 -4 25 1 33 7
8 7 12 -1 12 -6 0 -11 -5 -11 -11 0 -5 -5 -7 -12 -3 -6 4 -8 3 -5 -3 10 -16
-18 -23 -34 -10 -11 10 -11 9 -1 -4 6 -9 8 -19 4 -23 -4 -4 -2 -6 3 -4 6 2 10
-2 10 -7 0 -6 -3 -9 -7 -8 -5 2 -8 -2 -8 -7 0 -6 -6 -10 -14 -10 -21 0 -31
-21 -15 -31 11 -7 11 -9 1 -9 -7 0 -10 -5 -7 -10 5 -8 12 -7 22 1 13 11 13 15
-4 27 -17 13 -16 13 7 10 14 -2 25 -10 25 -18 0 -10 9 -14 28 -12 20 2 27 -2
27 -14 0 -13 -3 -14 -13 -5 -8 6 -17 8 -20 4 -4 -3 -13 -1 -20 6 -11 9 -17 8
-27 -4 -7 -8 -19 -15 -26 -15 -8 0 -14 -5 -14 -11 0 -5 5 -7 11 -3 12 7 31
-15 23 -28 -8 -13 -42 -9 -47 5 -3 9 -7 9 -20 -2 -10 -7 -17 -18 -17 -24 0 -6
7 -2 15 9 15 18 15 17 11 -13 -3 -27 -1 -31 15 -28 10 2 22 -2 25 -8 4 -7 4
-9 -1 -5 -4 4 -20 1 -35 -7 -21 -11 -30 -11 -41 -2 -11 10 -11 9 0 -5 7 -9 19
-14 28 -11 13 5 13 3 1 -16 -8 -13 -20 -20 -30 -17 -21 5 -21 5 -8 -28 8 -22
7 -26 -8 -27 -10 0 -12 -3 -4 -6 6 -2 12 -12 12 -21 0 -15 -2 -15 -10 -2 -8
13 -10 12 -10 -2 0 -10 -5 -18 -11 -18 -5 0 -7 5 -4 10 3 5 2 10 -3 10 -6 0
-8 10 -6 23 4 22 4 22 -6 -1 -5 -13 -8 -28 -4 -33 3 -5 -3 -9 -13 -9 -15 0
-16 -2 -3 -10 12 -8 12 -10 1 -10 -8 0 -11 -3 -8 -6 11 -11 -32 -38 -200 -128
-618 -330 -1281 -575 -1803 -665 -225 -39 -304 -45 -550 -45 -211 0 -263 3
-374 23 -521 92 -887 337 -1096 733 l-36 67 -28 -72 c-106 -273 -110 -589 -10
-869 166 -464 561 -785 1098 -893 691 -139 1593 65 2656 601 348 175 661 355
952 546 99 65 174 108 182 105 8 -3 75 -46 148 -95 781 -522 1474 -879 2118
-1090 427 -140 785 -205 1140 -205 193 0 306 12 480 50 450 98 809 372 995
758 152 316 180 695 74 1009 -43 130 -42 129 -77 60 -166 -328 -473 -584 -843
-702 -346 -111 -770 -122 -1229 -31 -346 68 -727 193 -1126 369 -273 121 -833
411 -841 436 -3 10 22 24 302 169 360 187 716 339 1049 450 438 146 772 211
1141 222 377 11 667 -42 941 -173 263 -125 497 -349 619 -593 14 -29 30 -50
34 -45 13 15 49 115 70 194 89 334 22 716 -176 1020 -278 424 -790 657 -1423
648 -69 -1 -145 -3 -170 -5z m555 -473 c203 -19 195 -17 195 -58 0 -65 -4 -66
-131 -54 -268 26 -498 23 -722 -9 -43 -6 -80 -9 -83 -6 -3 3 -6 27 -7 53 l-2
48 51 8 c180 26 517 35 699 18z m-2143 -512 c10 -23 17 -42 15 -43 -6 -5 -835
-375 -839 -375 -9 0 -41 80 -34 87 11 11 810 371 826 372 9 0 22 -17 32 -41z
m-1993 -181 c8 -11 6 -13 -12 -11 -30 3 -29 3 -22 14 8 14 20 13 34 -3z m-45
-14 c4 -10 4 -14 0 -10 -4 4 -13 2 -20 -4 -9 -8 -11 -5 -7 10 7 25 19 27 27 4z
m-54 -43 c0 -5 -2 -10 -4 -10 -3 0 -8 5 -11 10 -3 6 -1 10 4 10 6 0 11 -4 11
-10z m60 6 c0 -2 -7 -9 -15 -16 -13 -11 -14 -10 -9 4 5 14 24 23 24 12z m22
-33 c-6 -2 -10 -9 -7 -13 3 -5 0 -12 -6 -16 -8 -4 -9 -3 -5 4 4 7 2 12 -4 12
-6 0 -8 5 -5 10 3 6 14 10 23 9 11 0 12 -2 4 -6z m-70 -40 c-6 -2 -9 -9 -6
-15 4 -6 -2 -8 -12 -6 -11 2 -24 -3 -31 -12 -10 -13 -11 -12 -6 7 5 21 21 30
53 31 10 0 11 -1 2 -5z m32 -42 c-8 -8 -43 -8 -38 0 2 4 13 7 24 6 10 -1 17
-3 14 -6z m-24 -46 c0 -2 -9 -3 -19 -2 -11 0 -18 5 -15 9 4 6 34 0 34 -7z
m-35 -67 c5 -4 0 -6 -12 -6 -13 1 -19 7 -16 15 3 8 8 10 12 6 3 -4 10 -11 16
-15z m-76 -15 c0 -25 -1 -26 -9 -8 -12 27 -12 35 0 35 6 0 10 -12 9 -27z m-4
-105 c5 4 5 1 1 -6 -6 -10 -11 -10 -22 -1 -8 6 -14 14 -14 16 0 3 6 0 13 -6 8
-6 18 -7 22 -3z m-65 -69 c0 -6 -4 -7 -10 -4 -5 3 -10 11 -10 16 0 6 5 7 10 4
6 -3 10 -11 10 -16z m-33 -76 c-13 -3 -15 -8 -8 -17 8 -9 7 -13 -2 -13 -7 0
-14 9 -14 19 -1 13 5 18 20 17 18 -1 19 -2 4 -6z m-36 -40 c13 -16 12 -17 -3
-4 -17 13 -22 21 -14 21 2 0 10 -8 17 -17z m-42 -587 c12 -18 21 -38 21 -43 0
-11 -788 -433 -807 -433 -5 0 -18 16 -29 35 -13 25 -15 38 -7 46 8 8 788 426
800 429 1 0 11 -15 22 -34z m-2027 -842 c4 -26 6 -50 4 -51 -1 -2 -63 -10
-137 -19 -162 -20 -542 -21 -699 -2 l-105 13 -3 54 -3 54 38 -6 c199 -31 603
-33 793 -3 47 7 89 12 95 11 5 -1 13 -24 17 -51z"/>
<path d="M4220 2100 c0 -5 5 -10 11 -10 5 0 7 5 4 10 -3 6 -8 10 -11 10 -2 0
-4 -4 -4 -10z"/>
</g>
</svg>
